<?xml version="1.0" standalone="no"?>
<!DOCTYPE svg PUBLIC "-//W3C//DTD SVG 20010904//EN"
 "http://www.w3.org/TR/2001/REC-SVG-20010904/DTD/svg10.dtd">
<svg version="1.0" xmlns="http://www.w3.org/2000/svg"
 width="300.000000pt" height="200.000000pt" viewBox="0 0 300.000000 200.000000"
 preserveAspectRatio="xMidYMid meet">
<metadata>
Created by potrace 1.11, written by Peter Selinger 2001-2013
</metadata>
<g transform="translate(0.000000,200.000000) scale(0.100000,-0.100000)"
fill="#000000" stroke="none">
<path d="M1477 1800 c-8 -12 -20 -18 -30 -15 -28 11 -28 -15 0 -39 24 -21 26
-26 15 -50 -16 -36 -58 -45 -85 -18 -18 19 -19 24 -8 46 18 33 5 53 -20 30
-15 -13 -22 -14 -33 -5 -20 17 -60 10 -64 -10 -2 -11 6 -18 26 -22 28 -6 52
-40 52 -75 0 -37 13 -42 64 -27 62 19 169 19 221 0 49 -18 45 -18 45 0 0 35
40 93 71 104 27 9 30 13 19 26 -15 18 -45 19 -61 2 -11 -11 -16 -10 -32 6 -14
14 -22 16 -30 8 -8 -8 -8 -14 1 -23 21 -21 14 -57 -13 -70 -63 -28 -107 49
-49 87 19 12 23 20 15 28 -9 9 -16 8 -31 0 -16 -11 -19 -9 -22 10 -4 29 -32
33 -51 7z"/>
<path d="M1409 1547 c-233 -66 -333 -346 -211 -592 49 -100 32 -95 307 -95
l241 0 21 28 c91 123 116 303 62 447 -30 79 -122 174 -194 199 -67 23 -169 29
-226 13z"/>
<path d="M930 1467 c-40 -34 -60 -69 -60 -102 -1 -16 -9 -45 -19 -63 l-18 -34
-1 49 c-1 53 -16 103 -31 103 -16 0 -34 -80 -28 -123 3 -21 13 -47 22 -57 13
-14 15 -28 10 -59 -7 -45 -19 -47 -28 -4 -4 16 -16 44 -28 63 -22 35 -22 35
-32 12 -16 -36 7 -139 38 -172 19 -20 25 -36 24 -71 l-1 -44 -12 33 c-6 18
-27 49 -46 69 -33 33 -35 34 -38 14 -8 -50 51 -171 83 -171 12 0 35 -55 35
-82 0 -5 -17 9 -38 30 -43 43 -82 60 -82 36 0 -45 80 -144 116 -144 12 0 24
-6 27 -12 3 -7 12 -30 21 -51 l17 -38 -38 25 c-48 30 -103 43 -103 24 0 -16
75 -90 108 -107 12 -7 30 -10 40 -7 21 7 30 1 70 -51 l33 -42 -40 16 c-41 16
-111 11 -111 -8 0 -5 21 -23 47 -39 49 -31 109 -40 130 -19 9 9 22 4 52 -18
l41 -30 -40 -6 c-42 -5 -90 -30 -90 -46 0 -13 58 -31 101 -31 25 0 47 8 66 24
26 22 32 23 66 13 20 -7 37 -14 37 -17 0 -3 -16 -12 -35 -19 -29 -10 -75 -56
-75 -75 0 -12 81 -6 116 9 19 8 42 28 52 45 14 25 23 30 55 30 21 0 47 -5 58
-10 13 -8 19 -7 19 0 0 14 -44 30 -86 30 -30 0 -36 5 -55 45 -23 49 -58 79
-104 91 l-29 7 28 -49 c16 -27 38 -58 50 -68 l21 -19 -30 7 c-48 12 -75 34
-75 62 0 51 -62 154 -93 154 -13 0 0 -65 23 -118 l19 -42 -35 26 c-37 29 -37
29 -34 96 2 46 -26 128 -48 142 -17 10 -26 -61 -15 -111 12 -49 10 -48 -36 16
-27 38 -29 45 -15 55 33 25 37 139 6 190 -7 13 -40 -81 -42 -119 0 -25 -2 -27
-11 -13 -19 34 -38 98 -28 95 33 -7 74 119 55 170 -6 14 -12 9 -36 -28 -17
-24 -30 -53 -30 -63 0 -12 -3 -16 -9 -10 -10 9 -20 103 -11 101 35 -8 90 70
90 126 l0 28 -30 -23 c-17 -12 -40 -36 -51 -53 l-21 -30 6 40 c3 22 6 46 6 53
0 6 8 12 18 12 30 0 78 36 92 69 18 43 6 50 -42 23 -47 -25 -53 -23 -44 13 5
21 12 25 42 25 28 0 44 8 70 34 19 19 34 39 34 45 0 12 -52 5 -83 -11 -36 -18
-29 1 16 45 46 44 62 77 55 115 -3 20 -3 20 -28 -1z"/>
<path d="M2190 1401 c-6 -13 -14 -47 -17 -78 -3 -30 -9 -50 -12 -46 -10 14
-77 43 -100 43 -29 0 -26 -21 7 -52 39 -37 69 -44 95 -21 16 13 18 14 9 1 -7
-9 -9 -18 -4 -20 5 -1 13 -19 17 -38 l7 -35 -23 21 c-27 23 -79 47 -86 40 -3
-3 3 -22 13 -43 17 -34 30 -44 94 -73 9 -4 16 -24 18 -51 l3 -44 -18 25 c-21
30 -65 69 -77 70 -13 0 3 -71 25 -106 10 -17 30 -36 44 -42 25 -12 26 -15 21
-70 -6 -57 -3 -61 8 -11 3 14 17 31 30 37 14 6 32 21 40 34 16 24 49 139 42
145 -16 17 -79 -59 -96 -115 -7 -23 -8 -19 -9 24 -1 42 3 55 24 74 14 13 29
40 35 59 12 45 13 131 1 131 -16 0 -52 -67 -59 -112 l-7 -43 -13 54 c-11 48
-10 55 8 78 24 31 27 124 6 162 l-13 24 -13 -22z"/>
<path d="M2115 929 c-9 -39 11 -112 36 -135 24 -21 23 -48 -2 -99 -11 -22 -17
-32 -14 -21 6 20 -23 133 -35 141 -12 7 -30 -53 -30 -97 0 -22 7 -56 16 -75
19 -38 14 -55 -32 -109 -18 -21 -22 -23 -15 -7 6 12 11 52 11 89 0 59 -2 65
-16 53 -32 -26 -48 -73 -49 -143 0 -66 -1 -69 -34 -95 -32 -24 -33 -24 -23 -4
7 12 18 49 26 82 13 56 13 60 -2 52 -46 -25 -92 -109 -92 -166 0 -19 -9 -26
-47 -39 -26 -9 -48 -16 -49 -16 -2 0 8 11 21 24 24 24 69 105 63 112 -3 2 -24
-6 -49 -19 -35 -17 -49 -33 -69 -74 -25 -52 -25 -53 -71 -53 -25 0 -54 -6 -64
-14 -17 -12 -12 -13 48 -9 55 5 67 3 67 -9 0 -24 42 -56 91 -69 46 -12 79 -8
79 10 0 19 -61 70 -92 77 l-33 7 49 14 c45 13 50 13 70 -5 11 -11 33 -22 48
-26 30 -7 105 7 120 22 15 15 -38 46 -90 52 l-45 5 39 27 c36 25 43 27 71 16
24 -9 40 -9 70 0 48 15 99 55 89 70 -10 17 -85 15 -119 -3 -27 -14 -27 -13 10
35 34 44 42 49 77 50 34 0 46 7 95 57 46 46 53 58 38 61 -27 6 -59 -4 -99 -32
l-36 -24 20 49 c14 33 27 49 39 49 28 0 78 48 105 102 14 28 23 52 20 55 -10
11 -50 -11 -86 -47 l-39 -39 -12 37 c-14 45 -50 112 -60 112 -4 0 -10 -14 -14
-31z"/>
<path d="M1290 842 c0 -4 27 -23 59 -41 32 -19 64 -43 70 -55 6 -12 12 -92 14
-191 l2 -170 28 -3 27 -3 -2 233 -3 233 -97 3 c-54 1 -98 -1 -98 -6z"/>
<path d="M1517 843 c-4 -3 -7 -109 -7 -235 l0 -229 33 3 32 3 5 180 c3 99 9
185 13 192 4 7 35 26 67 44 33 17 60 36 60 40 0 10 -193 12 -203 2z"/>
</g>
</svg>
