<?xml version="1.0" encoding="utf-8"?>
<!-- Generator: Adobe Illustrator 16.0.4, SVG Export Plug-In . SVG Version: 6.00 Build 0)  -->
<!DOCTYPE svg PUBLIC "-//W3C//DTD SVG 1.1//EN" "http://www.w3.org/Graphics/SVG/1.1/DTD/svg11.dtd">
<svg version="1.1" id="Layer_1" xmlns="http://www.w3.org/2000/svg" xmlns:xlink="http://www.w3.org/1999/xlink" x="0px" y="0px"
	 width="24.023px" height="24.008px" viewBox="0 0 24.023 24.008" enable-background="new 0 0 24.023 24.008" xml:space="preserve">
<path d="M2.5,5C1.119,5,0,3.881,0,2.5S1.119,0,2.5,0S5,1.119,5,2.5S3.881,5,2.5,5z M21.4,3.6C17-0.7,11.399,0.8,7.8,4.4
	C6.5,5.7,5.7,7.3,5.399,9L16,19.6c1.7-0.3,3.3-1.199,4.6-2.5C24.2,13.6,25.7,7.9,21.4,3.6z M5.899,14c0,0.3,0.4,2.1-0.3,2.8
	c-1.5,1.4-3.5,2.8-4.2,3.5c-0.8,0.7-0.5,1.7,0.5,2.7s2,1.3,2.801,0.7c0.699-0.8,2-2.7,3.5-4.2c0.6-0.6,2.3-0.4,2.699-0.3
	c1,0.399,2.101,0.6,3.201,0.6l-8.9-8.9C5.2,12,5.399,13,5.899,14z"/>
</svg>
